# xmcd CD database file
#
# Track frame offsets:
#	150
#	25059
#	39165
#	59660
#	75943
#	79188
#	100837
#	116188
#	137489
#	154269
#	170614
#	190874
#	208851
#	219720
#
# Disc length: 3278 seconds
#
# Revision: 1
# Processed by: cddbd v1.4PL0 Copyright (c) Steve Scherf et al.
# Submitted via: CDex 1.40Beta9
#
DISCID=bd0ccc0e
DTITLE=Jack de Keyzer - Down In The Groove
DYEAR=1999
DGENRE=Blues
TTITLE0=Down In The Groove (pt 1)
TTITLE1=Gambler's Blues
TTITLE2=High On Your Love
TTITLE3=Nasty Swing
TTITLE4=Love Is Right (intro)
TTITLE5=When Love Is Right
TTITLE6=I Need A Break
TTITLE7=Touch Of The Blues
TTITLE8=I Wanna Rock
TTITLE9=Party
TTITLE10=Skid Row
TTITLE11=Ride With Me
TTITLE12=Ain't No Stopping
TTITLE13=Groove (pt 2)
EXTD=YEAR: 1999 ID3G: 0
EXTT0=
EXTT1=
EXTT2=
EXTT3=
EXTT4=
EXTT5=
EXTT6=
EXTT7=
EXTT8=
EXTT9=
EXTT10=
EXTT11=
EXTT12=
EXTT13=
PLAYORDER=
